name D:\school\WTK\thesis\model\3dpredictsim\Results\MidTarsalJoint\Fal_s1_bCst_PF_Natali2010_ls150_MT_k100_d010_MTP_T5_ig23.mot
datacolumns 128
datarows 4
range 0.00000000 0.03535594
endheader
time	pelvis_tilt	pelvis_list	pelvis_rotation	pelvis_tx	pelvis_ty	pelvis_tz	hip_flexion_l	hip_adduction_l	hip_rotation_l	hip_flexion_r	hip_adduction_r	hip_rotation_r	knee_angle_l	knee_angle_r	ankle_angle_l	ankle_angle_r	subtalar_angle_l	subtalar_angle_r	mtj_angle_l	mtj_angle_r	mtp_angle_l	mtp_angle_r	lumbar_extension	lumbar_bending	lumbar_rotation	arm_flex_l	arm_add_l	arm_rot_l	arm_flex_r	arm_add_r	arm_rot_r	elbow_flex_l	elbow_flex_r	pro_sup_l	pro_sup_r	glut_med1_l/activation	glut_med2_l/activation	glut_med3_l/activation	glut_min1_l/activation	glut_min2_l/activation	glut_min3_l/activation	semimem_l/activation	semiten_l/activation	bifemlh_l/activation	bifemsh_l/activation	sar_l/activation	add_long_l/activation	add_brev_l/activation	add_mag1_l/activation	add_mag2_l/activation	add_mag3_l/activation	tfl_l/activation	pect_l/activation	grac_l/activation	glut_max1_l/activation	glut_max2_l/activation	glut_max3_l/activation	iliacus_l/activation	psoas_l/activation	quad_fem_l/activation	gem_l/activation	peri_l/activation	rect_fem_l/activation	vas_med_l/activation	vas_int_l/activation	vas_lat_l/activation	med_gas_l/activation	lat_gas_l/activation	soleus_l/activation	tib_post_l/activation	flex_dig_l/activation	flex_hal_l/activation	tib_ant_l/activation	per_brev_l/activation	per_long_l/activation	per_tert_l/activation	ext_dig_l/activation	ext_hal_l/activation	ercspn_l/activation	intobl_l/activation	extobl_l/activation	glut_med1_r/activation	glut_med2_r/activation	glut_med3_r/activation	glut_min1_r/activation	glut_min2_r/activation	glut_min3_r/activation	semimem_r/activation	semiten_r/activation	bifemlh_r/activation	bifemsh_r/activation	sar_r/activation	add_long_r/activation	add_brev_r/activation	add_mag1_r/activation	add_mag2_r/activation	add_mag3_r/activation	tfl_r/activation	pect_r/activation	grac_r/activation	glut_max1_r/activation	glut_max2_r/activation	glut_max3_r/activation	iliacus_r/activation	psoas_r/activation	quad_fem_r/activation	gem_r/activation	peri_r/activation	rect_fem_r/activation	vas_med_r/activation	vas_int_r/activation	vas_lat_r/activation	med_gas_r/activation	lat_gas_r/activation	soleus_r/activation	tib_post_r/activation	flex_dig_r/activation	flex_hal_r/activation	tib_ant_r/activation	per_brev_r/activation	per_long_r/activation	per_tert_r/activation	ext_dig_r/activation	ext_hal_r/activation	ercspn_r/activation	intobl_r/activation	extobl_r/activation	
          0.00000000	         -2.92998395	         -2.50911220	          6.20706342	          0.00000000	          0.91845140	         -0.00089226	        -15.75627613	         -1.95560332	          7.46241624	         29.33368027	          3.81601254	         -0.95074747	        -12.03372791	        -10.98251330	         -6.19989946	          4.64919725	         13.21028532	         -4.83517127	          9.60680774	         -0.07992665	          2.91911663	         -0.80280384	         -1.77962528	          0.66897240	         -2.34101671	          5.06350194	        -13.46411226	         17.61033747	         -5.55581954	        -13.46840972	          7.51238235	         37.31698227	         15.24377965	         86.51662706	         86.51662706	          0.24896478	          0.10244896	          0.05860164	          0.28026341	          0.20357122	          0.10806828	          0.05000019	          0.05000003	          0.05000002	          0.05000003	          0.10935027	          0.08248893	          0.07155813	          0.05000021	          0.05000031	          0.05000009	          0.29386870	          0.09471499	          0.05000028	          0.05000033	          0.05000022	          0.05000014	          0.38501456	          0.54760556	          0.05000006	          0.05000013	          0.05000004	          0.27515627	          0.06399353	          0.05000056	          0.05000058	          0.26200892	          0.36025044	          0.36054191	          0.23286059	          0.18632839	          0.26127028	          0.05000000	          0.07093507	          0.18831068	          0.05000002	          0.05000000	          0.05000002	          0.05000000	          0.05000004	          0.06335740	          0.05982108	          0.05982108	          0.05000001	          0.05982109	          0.05982109	          0.05662636	          0.12871689	          0.06441180	          0.18660770	          0.05000007	          0.05000005	          0.14664778	          0.31546981	          0.12388708	          0.18697515	          0.10849482	          0.05000001	          0.08561868	          0.12945060	          0.05000011	          0.05000046	          0.14963724	          0.05705445	          0.05000007	          0.23104644	          0.29440787	          0.13744705	          0.05000051	          0.14342945	          0.14206311	          0.12647287	          0.06328565	          0.06446617	          0.06035338	          0.05000000	          0.05000016	          0.05000005	          0.52110648	          0.25944053	          0.16584428	          0.23972051	          0.46254457	          0.23357007	          0.05000001	          0.11440995	          0.10244892	
          0.01178531	         -2.92916224	         -2.59371996	          6.47017378	          0.01809801	          0.91739435	         -0.00070688	        -15.63360842	         -2.26223018	          7.25924535	         28.57937019	          4.21511991	         -0.69752720	        -13.91451071	        -11.14752730	         -6.80328206	          3.93169682	         14.16228029	         -5.22075234	          8.08501181	         -0.05666116	          4.84691195	         -0.81808229	         -1.56652447	          0.87033480	         -2.42098696	          4.67169780	        -13.48593013	         17.86132821	         -6.54093179	        -13.46735061	          7.29137718	         38.59514929	         14.91196903	         86.51662706	         86.51662706	          0.20809114	          0.08562947	          0.05301675	          0.23425134	          0.17015005	          0.09032624	          0.05000047	          0.05000009	          0.05000012	          0.05000002	          0.09139780	          0.17217420	          0.05982109	          0.05982117	          0.05982113	          0.05982109	          0.24562299	          0.08563769	          0.05982086	          0.05000139	          0.05000152	          0.05982101	          0.32180506	          0.51459454	          0.06176263	          0.05985979	          0.05982199	          0.22998265	          0.07097168	          0.14664785	          0.14664790	          0.21899375	          0.30110653	          0.30135014	          0.19463085	          0.15573807	          0.21837641	          0.05000000	          0.05928936	          0.19853172	          0.05000002	          0.05000000	          0.05000003	          0.06293815	          0.06488982	          0.07157123	          0.05000000	          0.05000000	          0.10408562	          0.05000000	          0.05000000	          0.05000000	          0.10758488	          0.05383704	          0.15597149	          0.05000001	          0.05000015	          0.12257199	          0.28988946	          0.33369494	          0.21697040	          0.11330129	          0.05000008	          0.07158769	          0.14670133	          0.07015874	          0.09552818	          0.12507068	          0.05000000	          0.05000011	          0.46808668	          0.24607363	          0.11488176	          0.05982121	          0.16768947	          0.16840507	          0.14198298	          0.05982229	          0.06186979	          0.05044494	          0.05982129	          0.05000035	          0.05982108	          0.48455422	          0.30202822	          0.20152840	          0.20036487	          0.44566804	          0.19522385	          0.05000000	          0.09562676	          0.08562942	
          0.02357063	         -2.92341309	         -2.68129459	          6.69555786	          0.03652198	          0.91634029	         -0.00055066	        -15.45778400	         -2.56301210	          7.05065675	         27.68418213	          4.51178798	         -0.41754630	        -15.85819354	        -11.53728381	         -7.49644627	          3.41241842	         15.02850668	         -5.61536670	          6.24109212	         -0.35884322	          7.06742950	         -0.80318570	         -1.33124779	          1.08324988	         -2.48795103	          4.18594141	        -13.50626783	         18.01530321	         -7.54627653	        -13.47605306	          7.13978105	         39.86732845	         14.61855447	         86.51662706	         86.51662706	          0.35768188	          0.07157131	          0.05000387	          0.32764674	          0.14221582	          0.07549700	          0.05000024	          0.05000002	          0.05000001	          0.05000008	          0.08136492	          0.14390761	          0.05000004	          0.05000008	          0.05000010	          0.05000003	          0.20529822	          0.07157836	          0.05000019	          0.05000048	          0.05000020	          0.05000007	          0.26897295	          0.48311555	          0.05162280	          0.05003240	          0.05000078	          0.19222538	          0.05931995	          0.12257203	          0.12257207	          0.18304057	          0.25167253	          0.25187615	          0.16267744	          0.13016987	          0.18252460	          0.07297973	          0.14065576	          0.20413969	          0.05000003	          0.10798132	          0.05000010	          0.05872709	          0.05423657	          0.05982107	          0.25394169	          0.26542467	          0.30891215	          0.40923654	          0.24467093	          0.18620303	          0.10218385	          0.06564470	          0.13439076	          0.08562926	          0.05746479	          0.10244881	          0.24229702	          0.27891078	          0.18134943	          0.11531553	          0.05000005	          0.05983496	          0.12261678	          0.15480633	          0.11912722	          0.10453728	          0.05038441	          0.05000007	          0.39123882	          0.20567464	          0.24858307	          0.05000010	          0.14015915	          0.14075728	          0.11867301	          0.05000100	          0.05171236	          0.05000004	          0.05000017	          0.05000004	          0.05000006	          0.57612689	          0.35455426	          0.18562574	          0.37585738	          0.52249605	          0.24446702	          0.06419076	          0.10702620	          0.07157126	
          0.03535594	         -2.91530673	         -2.75883307	          6.88035054	          0.05500967	          0.91536010	         -0.00037363	        -15.17732730	         -2.84122675	          6.85915514	         26.74652742	          4.78038638	         -0.14267780	        -17.92629638	        -11.88995410	         -8.27516156	          2.89073094	         15.80775143	         -6.02613966	          4.14324177	         -0.32565705	          9.38917519	         -0.73276405	         -1.10110806	          1.29233928	         -2.54327111	          3.65435605	        -13.53218070	         18.10094029	         -8.51642642	        -13.48510721	          7.06263228	         41.10219715	         14.33565557	         86.51662706	         86.51662706	          0.29895968	          0.05982113	          0.05000000	          0.27385554	          0.11886763	          0.06310233	          0.05000024	          0.05000002	          0.05000002	          0.05000001	          0.06800691	          0.15483713	          0.07254708	          0.05000229	          0.05000080	          0.05056014	          0.17159351	          0.05983418	          0.05000008	          0.05000026	          0.05000017	          0.05000010	          0.22481447	          0.43281526	          0.05000001	          0.05000006	          0.05000001	          0.16066689	          0.10244893	          0.10244894	          0.10244892	          0.15298999	          0.21035434	          0.21052452	          0.13596997	          0.10879932	          0.15255874	          0.15460200	          0.15700273	          0.17062519	          0.17929805	          0.17898887	          0.05000011	          0.08679076	          0.05000000	          0.05000000	          0.36869119	          0.37947154	          0.41136506	          0.34205040	          0.20450232	          0.26389497	          0.08963811	          0.09855616	          0.11298890	          0.07157115	          0.05000005	          0.08562934	          0.20251806	          0.23312082	          0.19979682	          0.16254739	          0.05000003	          0.05001179	          0.10248670	          0.24733643	          0.18847027	          0.16145344	          0.05000001	          0.05000001	          0.32700741	          0.17190814	          0.22312921	          0.05000000	          0.16734702	          0.17876599	          0.13088819	          0.05000000	          0.05000000	          0.05000000	          0.05000000	          0.05000001	          0.05000001	          0.64029450	          0.29634553	          0.15515075	          0.57439611	          0.55422863	          0.34456033	          0.08129187	          0.08945523	          0.05982109	
